<svg xmlns="http://www.w3.org/2000/svg" viewBox="0 0 520 120" width="520" height="120" fill="none">
  <defs>
    <!-- Gradients -->
    <linearGradient id="bgGrad" x1="0%" y1="0%" x2="100%" y2="100%">
      <stop offset="0%" stop-color="#0c1220" />
      <stop offset="100%" stop-color="#04070d" />
    </linearGradient>
    <linearGradient id="robeGrad" x1="0%" y1="0%" x2="0%" y2="100%">
      <stop offset="0%" stop-color="#151d33" />
      <stop offset="60%" stop-color="#0c1220" />
      <stop offset="100%" stop-color="#04070d" />
    </linearGradient>
    <linearGradient id="hatGrad" x1="0%" y1="0%" x2="100%" y2="100%">
      <stop offset="0%" stop-color="#1e293b" />
      <stop offset="100%" stop-color="#070b14" />
    </linearGradient>
    <linearGradient id="talismanGrad" x1="0%" y1="0%" x2="0%" y2="100%">
      <stop offset="0%" stop-color="#ffe57f" />
      <stop offset="50%" stop-color="#ffd166" />
      <stop offset="100%" stop-color="#f59e0b" />
    </linearGradient>
    <radialGradient id="ghostSkin" cx="50%" cy="40%" r="60%">
      <stop offset="0%" stop-color="#e2fbeb" />
      <stop offset="70%" stop-color="#b7e4c7" />
      <stop offset="100%" stop-color="#74c69d" />
    </radialGradient>
    <filter id="glowMint" x="-20%" y="-20%" width="140%" height="140%">
      <feGaussianBlur stdDeviation="6" result="blur" />
      <feComposite in="SourceGraphic" in2="blur" operator="over" />
    </filter>
  </defs>

  <!-- Mascot Icon Box (Left, 96x96 rounded) -->
  <g transform="translate(12, 12)">
    <!-- Badge Background with Glow -->
    <rect width="96" height="96" rx="24" fill="url(#bgGrad)" stroke="#00f5a0" stroke-width="2" stroke-opacity="0.6" filter="url(#glowMint)" />
    <rect width="96" height="96" rx="24" fill="url(#bgGrad)" stroke="#00f5a0" stroke-width="1.5" stroke-opacity="0.8" />
    
    <!-- Mascot SVG inside Badge (Centered, 80x88) -->
    <g transform="translate(8, 4) scale(0.8)">
      <!-- Ground Shadow -->
      <ellipse cx="50" cy="108" rx="22" ry="4" fill="rgba(0,0,0,0.6)" />

      <!-- Arms Outstretched -->
      <g>
        <path d="M32 66 C18 66 12 70 8 72" stroke="#0c1220" stroke-width="7" stroke-linecap="round" />
        <circle cx="8" cy="72" r="4" fill="#00f5a0" />
        <path d="M68 66 C82 66 88 70 92 72" stroke="#0c1220" stroke-width="7" stroke-linecap="round" />
        <circle cx="92" cy="72" r="4" fill="#00f5a0" />
      </g>

      <!-- Robe Body -->
      <path d="M32 58 C32 58, 40 56, 50 56 C60 56, 68 58, 68 58 L76 102 C76 102, 50 106, 24 102 Z" fill="url(#robeGrad)" stroke="#00f5a0" stroke-width="1.2" />
      <path d="M42 59 L50 71 L58 59" stroke="#00f5a0" stroke-width="1.5" fill="none" stroke-linecap="round" />
      <polygon points="50,75 55,78 55,84 50,87 45,84 45,78" fill="#070b14" stroke="#ffd166" stroke-width="0.8" />
      <text x="50" y="83" text-anchor="middle" font-size="4" font-family="monospace" font-weight="bold" fill="#00f5a0">{ }</text>

      <!-- Feet -->
      <ellipse cx="40" cy="103" rx="6" ry="3" fill="#070b14" stroke="#00f5a0" stroke-width="0.8" />
      <ellipse cx="60" cy="103" rx="6" ry="3" fill="#070b14" stroke="#00f5a0" stroke-width="0.8" />

      <!-- Ghost Head -->
      <circle cx="50" cy="42" r="21" fill="url(#miniGhostSkin)" stroke="#00f5a0" stroke-width="1.2" />

      <!-- Headphones -->
      <path d="M28 42 C28 24, 72 24, 72 42" stroke="#11182c" stroke-width="3.5" fill="none" stroke-linecap="round" />
      <rect x="25" y="36" width="5" height="13" rx="2.5" fill="#00f5a0" stroke="#070b14" stroke-width="0.8" />
      <rect x="70" y="36" width="5" height="13" rx="2.5" fill="#00f5a0" stroke="#070b14" stroke-width="0.8" />

      <!-- Mandarin Hat -->
      <path d="M30 30 C31 12, 69 12, 70 30 Z" fill="url(#miniHatGrad)" stroke="#ffd166" stroke-width="1.2" />
      <ellipse cx="50" cy="30" rx="23" ry="6" fill="#0c1220" stroke="#ffd166" stroke-width="1.2" />
      <circle cx="50" cy="22" r="2.8" fill="#ff0054" stroke="#ffd166" stroke-width="0.8" />
      <line x1="50" y1="19" x2="50" y2="10" stroke="#00f5a0" stroke-width="1.2" />
      <circle cx="50" cy="9" r="2" fill="#00f5a0" />

      <!-- Blushing Cheeks -->
      <ellipse cx="38" cy="51" rx="3" ry="1.8" fill="#ff0054" opacity="0.4" />
      <ellipse cx="62" cy="51" rx="3" ry="1.8" fill="#ff0054" opacity="0.4" />

      <!-- Eyes -->
      <circle cx="42" cy="43" r="2.8" fill="#00f5a0" />
      <circle cx="43" cy="42" r="1" fill="#ffffff" />
      <circle cx="58" cy="43" r="2.8" fill="#00f5a0" />
      <circle cx="59" cy="42" r="1" fill="#ffffff" />

      <!-- Vampire Fangs Mouth -->
      <path d="M46 52 Q50 56 54 52" stroke="#070b14" stroke-width="1.2" fill="none" stroke-linecap="round" />
      <polygon points="47,52 48.5,55 50,52" fill="#ffffff" />
      <polygon points="50,52 51.5,55 53,52" fill="#ffffff" />

      <!-- Yellow Talisman -->
      <g>
        <rect x="43" y="24" width="14" height="28" rx="1.5" fill="url(#miniTalismanGrad)" stroke="#c9182b" stroke-width="0.8" />
        <circle cx="50" cy="29" r="2.5" fill="#c9182b" />
        <text x="50" y="30.5" text-anchor="middle" font-size="3" font-family="monospace" font-weight="bold" fill="#ffd166">&lt;/&gt;</text>
        <text x="50" y="38" text-anchor="middle" font-size="3.5" font-family="monospace" font-weight="bold" fill="#c9182b">0 BUG</text>
        <path d="M46 44 L50 46 L54 44" stroke="#c9182b" stroke-width="0.8" stroke-linecap="round" fill="none" />
      </g>
    </g>
  </g>

  <!-- Typography Brandmark (Right) -->
  <g transform="translate(130, 0)">
    <!-- Domain Text: macatung.dev -->
    <text x="0" y="66" font-family="'Space Grotesk', 'Plus Jakarta Sans', system-ui, sans-serif" font-size="44" font-weight="800" fill="#ffffff" letter-spacing="-1">
      macatung<tspan fill="#00f5a0">.dev</tspan>
    </text>
    
    <!-- Slogan Text with Terminal Code Runes -->
    <text x="2" y="96" font-family="'JetBrains Mono', monospace" font-size="14" font-weight="600" fill="#94a3b8" letter-spacing="1">
      // CODE AT MIDNIGHT <tspan fill="#ffd166">⚡</tspan> 0-BUG PROTOCOL
    </text>
  </g>
</svg>
